<svg id="SvgjsSvg1006" width="768.9999694824219" height="239" xmlns="http://www.w3.org/2000/svg" version="1.1" xmlns:xlink="http://www.w3.org/1999/xlink" xmlns:svgjs="http://svgjs.com/svgjs"><defs id="SvgjsDefs1007"><pattern patternUnits="userSpaceOnUse" id="pattern_mark_0" width="300" height="300"><text x="150" y="100" fill="rgba(229,229,229,0.8)" font-size="18" transform="rotate(-45, 150, 150)" style="dominant-baseline: middle; text-anchor: middle;"></text></pattern><pattern patternUnits="userSpaceOnUse" id="pattern_mark_1" width="300" height="300"><text x="150" y="200" fill="rgba(229,229,229,0.8)" font-size="18" transform="rotate(-45, 150, 150)" style="dominant-baseline: middle; text-anchor: middle;"></text></pattern><pattern id="SvgjsPattern1013" x="0" y="0" width="73" height="74" patternUnits="userSpaceOnUse"><image id="SvgjsImage1014" xlink:href="https://iconsapi.com/5ee26a08e4b0b788a933b047.svg" width="73" height="74" preserveAspectRatio="none" crossOrigin="anonymous" x="0" y="0"></image></pattern><pattern id="SvgjsPattern1017" x="0" y="0" width="100" height="100" patternUnits="userSpaceOnUse"><image id="SvgjsImage1018" xlink:href="https://iconsapi.com/5f1a7eeae4b0e9d5a9270dc8.svg" width="100" height="100" preserveAspectRatio="none" crossOrigin="anonymous" x="0" y="0"></image></pattern><marker id="SvgjsMarker1021" markerWidth="13" markerHeight="9" refX="9.5" refY="4.5" viewBox="0 0 13 9" orient="auto" markerUnits="userSpaceOnUse" stroke-dasharray="0,0"><path id="SvgjsPath1022" d="M0,0 L13,4.5 L0,9 L0,0" fill="#323232" stroke="#323232" stroke-width="1"></path></marker><pattern id="SvgjsPattern1025" x="0" y="0" width="100" height="100" patternUnits="userSpaceOnUse"><image id="SvgjsImage1026" xlink:href="https://iconsapi.com/607682ebe4b0250bbf525e30.svg" width="100" height="100" preserveAspectRatio="none" crossOrigin="anonymous" x="0" y="0"></image></pattern><marker id="SvgjsMarker1029" markerWidth="13" markerHeight="9" refX="9.5" refY="4.5" viewBox="0 0 13 9" orient="auto" markerUnits="userSpaceOnUse" stroke-dasharray="0,0"><path id="SvgjsPath1030" d="M0,0 L13,4.5 L0,9 L0,0" fill="#323232" stroke="#323232" stroke-width="1"></path></marker><marker id="SvgjsMarker1065" markerWidth="13" markerHeight="9" refX="9.5" refY="4.5" viewBox="0 0 13 9" orient="auto" markerUnits="userSpaceOnUse" stroke-dasharray="0,0"><path id="SvgjsPath1066" d="M0,0 L13,4.5 L0,9 L0,0" fill="#323232" stroke="#323232" stroke-width="1"></path></marker><marker id="SvgjsMarker1069" markerWidth="13" markerHeight="9" refX="9.5" refY="4.5" viewBox="0 0 13 9" orient="auto" markerUnits="userSpaceOnUse" stroke-dasharray="0,0"><path id="SvgjsPath1070" d="M0,0 L13,4.5 L0,9 L0,0" fill="#323232" stroke="#323232" stroke-width="1"></path></marker></defs><rect id="svgbackgroundid" width="768.9999694824219" height="239" fill="transparent"></rect><rect id="SvgjsRect1009" width="768.9999694824219" height="239" fill="url(#pattern_mark_0)"></rect><rect id="SvgjsRect1010" width="768.9999694824219" height="239" fill="url(#pattern_mark_1)"></rect><g id="SvgjsG1011" transform="translate(25,100)"><path id="SvgjsPath1012" d="M 0 0L 73 0L 73 74L 0 74Z" stroke="none" fill="url(#SvgjsPattern1013)"></path></g><g id="SvgjsG1015" transform="translate(343,87)"><path id="SvgjsPath1016" d="M 0 0L 100 0L 100 100L 0 100Z" stroke="none" fill="url(#SvgjsPattern1017)"></path></g><g id="SvgjsG1019"><path id="SvgjsPath1020" d="M98.75 137L220.5 137L220.5 137L340.29999999999995 137" stroke="#323232" stroke-width="1.5" fill="none" marker-end="url(#SvgjsMarker1021)"></path></g><g id="SvgjsG1023" transform="translate(644,87)"><path id="SvgjsPath1024" d="M 0 0L 100 0L 100 100L 0 100Z" stroke="none" fill="url(#SvgjsPattern1025)"></path></g><g id="SvgjsG1027"><path id="SvgjsPath1028" d="M443.75 137L641.3 137" stroke="#323232" stroke-width="1.5" fill="none" marker-end="url(#SvgjsMarker1029)"></path></g><g id="SvgjsG1031" transform="translate(158,100)"><path id="SvgjsPath1032" d="M 0 0L 100 0L 100 40L 0 40Z" stroke="none" fill="none"></path><g id="SvgjsG1033"><text id="SvgjsText1034" font-family="微软雅黑" text-anchor="middle" font-size="13px" width="100px" fill="#323232" font-weight="400" align="middle" lineHeight="125%" anchor="middle" family="微软雅黑" size="13px" weight="400" font-style="" opacity="1" y="9.375" transform="rotate(0)"><tspan id="SvgjsTspan1035" dy="16" x="50"><tspan id="SvgjsTspan1036" style="text-decoration:;">发起请求</tspan></tspan></text></g></g><g id="SvgjsG1037" transform="translate(338.3999938964844,47)"><path id="SvgjsPath1038" d="M 0 0L 100 0L 100 40L 0 40Z" stroke="none" fill="none"></path><g id="SvgjsG1039"><text id="SvgjsText1040" font-family="微软雅黑" text-anchor="middle" font-size="13px" width="100px" fill="#323232" font-weight="400" align="middle" lineHeight="125%" anchor="middle" family="微软雅黑" size="13px" weight="400" font-style="" opacity="1" y="9.375" transform="rotate(0)"><tspan id="SvgjsTspan1041" dy="16" x="50"><tspan id="SvgjsTspan1042" style="text-decoration:;font-weight: bold;">中间件服务器</tspan></tspan></text></g></g><g id="SvgjsG1043" transform="translate(480.3999938964844,87)"><path id="SvgjsPath1044" d="M 0 0L 143 0L 143 40L 0 40Z" stroke="none" fill="none"></path><g id="SvgjsG1045"><text id="SvgjsText1046" font-family="微软雅黑" text-anchor="middle" font-size="13px" width="143px" fill="#323232" font-weight="400" align="middle" lineHeight="125%" anchor="middle" family="微软雅黑" size="13px" weight="400" font-style="" opacity="1" y="0.875" transform="rotate(0)"><tspan id="SvgjsTspan1047" dy="16" x="71.5"><tspan id="SvgjsTspan1048" style="text-decoration:;">使用cgi协议准同给php</tspan></tspan><tspan id="SvgjsTspan1049" dy="16" x="71.5"><tspan id="SvgjsTspan1050" style="text-decoration:;">解析器传递数据</tspan></tspan></text></g></g><g id="SvgjsG1051" transform="translate(480.3999938964844,25)"><path id="SvgjsPath1052" d="M 0 0L 162.5 0L 178.5 16L 178.5 47L 0 47L 0 0Z" stroke="none" fill-opacity="1" fill="#fff7bc"></path><path id="SvgjsPath1053" d="M 162.5 0L 162.5 16L 178.5 16Z" stroke="none" fill-opacity="1" fill="#e4d089"></path><path id="SvgjsPath1054" d="M 0 0L 162.5 0L 178.5 16L 178.5 47L 0 47L 0 0Z" stroke="none" fill="none"></path><g id="SvgjsG1055"><text id="SvgjsText1056" font-family="微软雅黑" text-anchor="middle" font-size="13px" width="159px" fill="#323232" font-weight="400" align="middle" lineHeight="125%" anchor="middle" family="微软雅黑" size="13px" weight="400" font-style="" opacity="1" y="-3.625" transform="rotate(0)"><tspan id="SvgjsTspan1057" dy="16" x="89.5"><tspan id="SvgjsTspan1058" style="text-decoration:;fill: rgb(50, 50, 50);">此时会把请求数据进行url</tspan></tspan><tspan id="SvgjsTspan1059" dy="16" x="89.5"><tspan id="SvgjsTspan1060" style="text-decoration:;fill: rgb(50, 50, 50);">解码、符号解码（+变成空</tspan></tspan><tspan id="SvgjsTspan1061" dy="16" x="89.5"><tspan id="SvgjsTspan1062" style="text-decoration:;fill: rgb(50, 50, 50);">格）等</tspan></tspan></text></g></g><g id="SvgjsG1063"><path id="SvgjsPath1064" d="M643.6499938964844 166L543.3999938964844 166L543.3999938964844 166L445.0999938964844 166" stroke="#323232" stroke-width="1.5" fill="none" marker-end="url(#SvgjsMarker1065)"></path></g><g id="SvgjsG1067"><path id="SvgjsPath1068" d="M342.6499938964844 167L220.41092009611748 167L220.41092009611748 167L100.12184629575057 167" stroke="#323232" stroke-width="1.5" fill="none" marker-end="url(#SvgjsMarker1069)"></path></g><g id="SvgjsG1071" transform="translate(489.3999938964844,162)"><path id="SvgjsPath1072" d="M 0 0L 100 0L 100 40L 0 40Z" stroke="none" fill="none"></path><g id="SvgjsG1073"><text id="SvgjsText1074" font-family="微软雅黑" text-anchor="middle" font-size="13px" width="100px" fill="#323232" font-weight="400" align="middle" lineHeight="125%" anchor="middle" family="微软雅黑" size="13px" weight="400" font-style="" opacity="1" y="9.375" transform="rotate(0)"><tspan id="SvgjsTspan1075" dy="16" x="50"><tspan id="SvgjsTspan1076" style="text-decoration:;">解析后的数据</tspan></tspan></text></g></g><g id="SvgjsG1077" transform="translate(170.5,174)"><path id="SvgjsPath1078" d="M 0 0L 100 0L 100 40L 0 40Z" stroke="none" fill="none"></path><g id="SvgjsG1079"><text id="SvgjsText1080" font-family="微软雅黑" text-anchor="middle" font-size="13px" width="100px" fill="#323232" font-weight="400" align="middle" lineHeight="125%" anchor="middle" family="微软雅黑" size="13px" weight="400" font-style="" opacity="1" y="9.375" transform="rotate(0)"><tspan id="SvgjsTspan1081" dy="16" x="50"><tspan id="SvgjsTspan1082" style="text-decoration:;">解析后的数据</tspan></tspan></text></g></g></svg>